# xmcd
#
# Track frame offsets: 
#        150
#        14639
#        24025
#        38299
#        52084
#        64494
#        81411
#        93152
#        107889
#        121220
#        136627
#        151142
#        163448
#        176951
#        190991
#        208622
#        225787
#        239500
#        256648
#        268332
#        281481
#        291816
#        308341
#        316887
#        333319
#
# Disc length: 4641 seconds
#
# Revision: 0
# Processed by: cddbd v1.5.2PL0 Copyright (c) Steve Scherf et al.
# Submitted via: ExactAudioCopy v0.99pb4
#
DISCID=56121f19
DTITLE=Josh White - Blood Red River - CD 2
DYEAR=1900
DGENRE=Blues
TTITLE0=John Henry
TTITLE1=Minute Man
TTITLE2=Lord Randall, My Son
TTITLE3=I Left A Good Deal In Mobile
TTITLE4=Watercress
TTITLE5=Betty And Dupree
TTITLE6=Sometime
TTITLE7=The Lass With The Delicate Air
TTITLE8=The Man Who Couldn't Walk Around
TTITLE9=The Blind Man Stood On The Road And Cried
TTITLE10=Wanderings
TTITLE11=Lonesome Road
TTITLE12=Black Gal
TTITLE13=Apples, Peaches, And Cherries
TTITLE14=You Don't Know My Mind
TTITLE15=Free And Equal Blues
TTITLE16=Mint Julep
TTITLE17=Bonbons, Chocolate, And Chewing Gum
TTITLE18=Come Along, Charlie
TTITLE19=She's Too Much For Me
TTITLE20=Go Away From My Window
TTITLE21=One Meat Ball
TTITLE22=Scandalize My Name
TTITLE23=St James Infirmary
TTITLE24=I'm A Mean Mistreater
EXTD=
EXTT0=
EXTT1=
EXTT2=
EXTT3=
EXTT4=
EXTT5=
EXTT6=
EXTT7=
EXTT8=
EXTT9=
EXTT10=
EXTT11=
EXTT12=
EXTT13=
EXTT14=
EXTT15=
EXTT16=
EXTT17=
EXTT18=
EXTT19=
EXTT20=
EXTT21=
EXTT22=
EXTT23=
EXTT24=
PLAYORDER=
